<svg xmlns="http://www.w3.org/2000/svg" viewBox="0 8.859999656677246 158.58999633789062 46.34000015258789" data-asc="0.9052734375" width="158.58999633789062" height="46.34000015258789"><defs/><g><g><g transform="translate(0, 0)"><path d="M3.88 45.26L3.88 22.75L0 22.75L0 19.34L3.88 19.34L3.88 16.58Q3.88 13.96 4.35 12.70Q4.98 10.99 6.58 9.92Q8.18 8.86 11.06 8.86Q12.92 8.86 15.16 9.30L14.50 13.13Q13.13 12.89 11.91 12.89Q9.91 12.89 9.08 13.75Q8.25 14.60 8.25 16.94L8.25 19.34L13.31 19.34L13.31 22.75L8.25 22.75L8.25 45.26L3.88 45.26ZM16.75 14.53L16.75 9.47L21.14 9.47L21.14 14.53L16.75 14.53M16.75 45.26L16.75 19.34L21.14 19.34L21.14 45.26L16.75 45.26ZM27.73 45.26L27.73 9.47L32.13 9.47L32.13 45.26L27.73 45.26ZM38.94 45.26L38.94 19.34L42.87 19.34L42.87 22.97Q44.09 21.07 46.12 19.91Q48.14 18.75 50.73 18.75Q53.61 18.75 55.46 19.95Q57.30 21.14 58.06 23.29Q61.13 18.75 66.06 18.75Q69.92 18.75 72.00 20.89Q74.07 23.02 74.07 27.47L74.07 45.26L69.70 45.26L69.70 28.93Q69.70 26.29 69.27 25.13Q68.85 23.97 67.72 23.27Q66.60 22.56 65.09 22.56Q62.35 22.56 60.55 24.38Q58.74 26.20 58.74 30.20L58.74 45.26L54.35 45.26L54.35 28.42Q54.35 25.49 53.27 24.02Q52.20 22.56 49.76 22.56Q47.90 22.56 46.33 23.54Q44.75 24.51 44.04 26.39Q43.33 28.27 43.33 31.81L43.33 45.26L38.94 45.26ZM80.59 55.20L80.59 19.34L84.59 19.34L84.59 22.71Q86.01 20.73 87.79 19.74Q89.58 18.75 92.11 18.75Q95.43 18.75 97.97 20.46Q100.51 22.17 101.81 25.28Q103.10 28.39 103.10 32.10Q103.10 36.08 101.67 39.27Q100.24 42.46 97.52 44.15Q94.80 45.85 91.80 45.85Q89.60 45.85 87.85 44.92Q86.11 43.99 84.99 42.58L84.99 55.20L80.59 55.20M84.57 32.45Q84.57 37.45 86.60 39.84Q88.62 42.24 91.50 42.24Q94.43 42.24 96.52 39.76Q98.61 37.28 98.61 32.08Q98.61 27.12 96.57 24.66Q94.53 22.19 91.70 22.19Q88.89 22.19 86.73 24.82Q84.57 27.44 84.57 32.45ZM108.42 14.53L108.42 9.47L112.82 9.47L112.82 14.53L108.42 14.53M108.42 45.26L108.42 19.34L112.82 19.34L112.82 45.26L108.42 45.26ZM119.46 45.26L119.46 19.34L123.41 19.34L123.41 23.27Q124.93 20.51 126.21 19.63Q127.49 18.75 129.03 18.75Q131.25 18.75 133.54 20.17L132.03 24.24Q130.42 23.29 128.81 23.29Q127.37 23.29 126.22 24.16Q125.07 25.02 124.58 26.56Q123.85 28.91 123.85 31.69L123.85 45.26L119.46 45.26ZM153.91 36.91L158.45 37.48Q157.37 41.46 154.47 43.65Q151.56 45.85 147.05 45.85Q141.36 45.85 138.02 42.35Q134.69 38.84 134.69 32.52Q134.69 25.98 138.06 22.36Q141.43 18.75 146.80 18.75Q152.00 18.75 155.30 22.29Q158.59 25.83 158.59 32.25Q158.59 32.64 158.57 33.42L139.23 33.42Q139.48 37.70 141.65 39.97Q143.82 42.24 147.07 42.24Q149.49 42.24 151.20 40.97Q152.91 39.70 153.91 36.91M139.48 29.81L153.96 29.81Q153.66 26.54 152.29 24.90Q150.20 22.36 146.85 22.36Q143.82 22.36 141.76 24.39Q139.70 26.42 139.48 29.81Z"/></g></g></g></svg>